<?xml version="1.0" standalone="no"?>
<!DOCTYPE svg PUBLIC "-//W3C//DTD SVG 20010904//EN"
 "http://www.w3.org/TR/2001/REC-SVG-20010904/DTD/svg10.dtd">
<svg version="1.0" xmlns="http://www.w3.org/2000/svg"
 width="637.000000pt" height="392.000000pt" viewBox="0 0 637.000000 392.000000"
 preserveAspectRatio="xMidYMid meet">

<g transform="translate(0.000000,392.000000) scale(0.100000,-0.100000)"
fill="#000000" stroke="none">
<path d="M2794 3273 c-100 -94 -115 -120 -108 -176 4 -28 2 -47 -5 -51 -6 -4
-11 -12 -11 -17 0 -6 5 -7 11 -3 15 9 29 -14 29 -48 0 -43 17 -42 67 1 48 43
73 52 73 26 0 -30 31 -28 78 6 56 40 76 61 103 113 16 30 19 44 11 57 -8 13
-6 21 9 35 10 9 19 23 19 30 0 15 -50 47 -110 69 -86 32 -88 32 -166 -42z"/>
<path d="M1565 3289 c-15 -22 -29 -48 -32 -57 -4 -9 -14 -28 -23 -42 -9 -14
-32 -52 -49 -85 l-33 -59 44 -39 c65 -57 69 -60 124 -90 62 -33 64 -33 64 -4
1 40 24 59 62 52 31 -6 38 -3 61 24 14 18 29 48 33 67 7 36 5 38 -49 75 -5 4
2 29 15 57 24 49 24 51 6 66 -10 9 -24 16 -31 16 -7 0 -17 4 -22 8 -14 12
-115 52 -131 52 -8 0 -25 -18 -39 -41z"/>
<path d="M4665 3173 c-32 -35 -84 -112 -124 -185 -30 -55 -30 -55 -11 -76 11
-12 20 -24 20 -28 0 -4 16 -22 36 -41 35 -33 36 -36 31 -84 -3 -27 -10 -55
-14 -62 -4 -6 -8 -33 -8 -59 0 -27 1 -44 3 -39 2 6 10 7 19 4 11 -4 14 -2 9 5
-4 7 -4 50 0 97 6 78 8 84 23 71 10 -9 23 -11 36 -6 11 5 36 9 55 9 40 1 48 6
78 45 13 18 22 43 22 65 0 30 6 42 30 60 36 26 37 25 -67 139 -38 42 -74 83
-81 94 -18 24 -27 23 -57 -9z"/>
<path d="M3500 3025 c0 -7 12 -36 27 -65 l27 -52 -38 -32 c-38 -32 -38 -32
-23 -61 23 -44 65 -85 87 -85 10 0 25 -3 34 -6 10 -4 26 5 43 25 l27 31 23
-22 c19 -18 37 -22 101 -24 52 -2 72 0 62 6 -13 8 -12 11 6 16 20 5 20 6 -7
35 -16 17 -34 42 -42 57 -16 32 -37 71 -49 92 -5 8 -15 29 -23 47 -17 36 -28
39 -167 46 -68 4 -88 2 -88 -8z"/>
<path d="M2115 2951 c9 -18 14 -39 11 -46 -3 -9 0 -12 9 -8 9 3 18 -3 22 -13
4 -11 16 -31 27 -46 l20 -28 -23 -24 c-13 -14 -20 -29 -17 -35 4 -5 32 -15 63
-21 31 -7 74 -18 95 -26 41 -14 45 -12 78 35 12 17 25 21 71 21 67 0 119 9
119 21 0 4 -8 16 -19 26 -10 10 -28 36 -40 58 -57 106 -49 100 -137 101 -43 1
-128 5 -188 9 l-108 8 17 -32z"/>
<path d="M2660 2932 c0 -8 9 -25 20 -39 26 -33 26 -23 0 19 -11 18 -20 27 -20
20z"/>
<path d="M1463 2903 c-7 -3 -13 -12 -13 -21 0 -15 2 -15 17 1 18 18 16 27 -4
20z"/>
<path d="M2092 2828 c-6 -17 -9 -34 -7 -37 3 -2 6 2 6 10 1 8 5 1 9 -16 7 -26
8 -22 9 23 0 28 0 52 -2 52 -1 0 -8 -14 -15 -32z"/>
<path d="M2710 2839 c0 -23 39 -89 53 -89 13 0 7 25 -13 50 -11 14 -20 30 -20
37 0 22 -20 24 -20 2z"/>
<path d="M2755 2830 c10 -11 20 -20 23 -20 3 0 -3 9 -13 20 -10 11 -20 20 -23
20 -3 0 3 -9 13 -20z"/>
<path d="M3910 2729 c0 -12 26 -37 45 -43 28 -8 53 8 28 19 -16 7 -15 9 7 15
20 5 14 8 -28 11 -28 2 -52 1 -52 -2z"/>
<path d="M4566 2624 c-4 -14 -5 -29 -2 -31 3 -3 8 7 12 21 3 15 4 29 1 32 -2
3 -8 -7 -11 -22z"/>
<path d="M2567 2505 c-11 -7 -25 -11 -31 -9 -7 3 -18 -2 -25 -10 -11 -13 -9
-15 19 -11 17 2 38 9 46 16 12 10 13 9 9 -3 -4 -9 1 -23 10 -32 9 -9 13 -16 8
-16 -4 0 0 -5 10 -11 9 -5 21 -8 26 -5 11 7 2 46 -11 46 -5 0 -6 5 -3 10 3 6
1 10 -5 10 -7 0 -10 7 -6 15 7 19 -22 19 -47 0z"/>
<path d="M1940 2492 c0 -4 -10 -12 -21 -17 -12 -6 -20 -14 -18 -20 6 -15 39
-16 39 -1 0 21 28 27 39 9 8 -14 12 -15 25 -4 14 12 16 9 16 -20 0 -19 -7 -59
-15 -89 -8 -30 -15 -72 -15 -92 0 -33 -4 -40 -32 -51 -30 -13 -34 -12 -45 7
-15 27 -6 90 19 137 19 35 19 37 3 63 -22 33 -30 28 -14 -7 8 -17 9 -31 2 -39
-11 -15 -27 -71 -43 -150 -8 -42 -15 -56 -25 -52 -11 5 -14 -5 -13 -40 0 -26
-2 -49 -5 -53 -12 -11 -37 19 -37 43 0 26 -10 30 -27 13 -8 -8 -27 -8 -70 1
-111 23 -193 24 -251 1 -71 -28 -80 -27 -86 12 -2 17 -2 -23 0 -91 3 -68 12
-160 21 -205 17 -88 20 -203 9 -281 -4 -27 -11 -44 -15 -40 -10 11 -36 95 -49
159 -6 28 -20 93 -31 145 -40 183 -44 208 -39 264 4 42 1 56 -9 56 -18 0 -17
-64 3 -174 11 -61 13 -90 6 -95 -7 -4 -11 -48 -11 -111 0 -58 -5 -121 -11
-140 -10 -32 -21 -87 -37 -193 -3 -24 1 -49 11 -71 9 -19 16 -38 15 -43 0 -4
-7 6 -14 22 l-14 30 0 -45 c0 -25 6 -56 13 -70 12 -21 12 -26 -3 -36 -13 -10
-14 -17 -4 -43 6 -17 7 -29 2 -25 -5 3 -9 -2 -9 -10 0 -17 29 -36 55 -36 13 0
14 4 5 20 -7 13 -7 27 -2 38 5 9 13 39 17 66 6 43 5 48 -7 38 -12 -9 -19 -8
-34 4 -18 15 -18 15 0 10 10 -4 25 -1 34 6 8 7 16 13 18 13 1 0 17 -19 34 -43
17 -23 42 -47 57 -53 22 -8 25 -13 19 -42 -19 -89 -36 -196 -36 -225 0 -39 17
-75 31 -67 5 4 9 -13 9 -40 0 -38 5 -51 30 -73 29 -27 117 -59 129 -47 3 4 -2
20 -12 36 -9 17 -18 45 -18 62 -1 18 -3 24 -6 15 -3 -12 -14 -18 -31 -18 -15
0 -37 -3 -49 -6 -21 -6 -23 -3 -23 40 l0 46 50 0 c45 0 50 -2 51 -22 1 -15 3
-17 6 -7 3 13 21 16 106 15 56 -1 106 -5 110 -11 5 -5 6 7 2 28 -6 40 1 44 53
31 17 -5 22 -14 23 -43 l1 -36 11 35 c6 19 16 40 22 47 16 16 26 150 15 198
-19 80 -13 123 24 168 36 45 60 88 81 146 13 33 14 27 14 -86 1 -73 -3 -124
-9 -128 -21 -13 -70 -111 -70 -139 0 -29 0 -29 51 -23 28 4 63 4 78 1 26 -6
27 -7 23 -62 -2 -39 1 -63 11 -76 17 -24 37 -13 37 20 0 24 2 25 38 19 32 -5
41 -2 61 19 13 14 26 40 30 58 6 31 9 33 49 33 25 0 42 -5 42 -11 0 -7 -8 -11
-17 -10 -25 2 -32 -98 -8 -108 11 -4 17 2 22 24 7 39 20 46 42 26 41 -37 106
-2 120 65 7 33 19 44 61 53 14 4 36 15 48 26 22 18 24 28 25 128 2 91 -1 116
-20 158 -11 27 -31 73 -42 103 l-21 54 22 36 c21 36 87 111 98 111 3 0 5 -46
5 -103 0 -101 0 -103 37 -158 20 -31 52 -66 71 -79 30 -20 34 -27 27 -49 -22
-71 -33 -177 -27 -261 7 -108 22 -140 67 -140 25 0 32 -6 46 -38 9 -20 20 -53
25 -73 5 -20 21 -55 36 -78 l27 -42 20 21 c18 18 21 31 18 105 l-2 85 34 0
c18 0 47 3 63 6 27 5 29 3 52 -58 13 -35 25 -78 28 -96 6 -39 16 -46 42 -33
21 11 30 48 38 154 4 65 6 67 31 67 15 0 38 3 51 7 21 5 23 10 17 50 -3 24
-13 58 -23 76 -25 49 -22 121 7 152 27 29 49 31 90 10 15 -8 49 -14 74 -13 25
1 48 -1 52 -5 5 -4 3 -34 -4 -65 -17 -85 -16 -92 28 -129 39 -34 40 -36 40
-101 0 -45 7 -81 21 -111 13 -31 16 -48 9 -55 -15 -15 -12 -56 4 -56 20 0 46
28 46 50 0 10 5 20 11 22 13 4 29 72 28 118 -1 28 -4 21 -15 -29 -14 -62 -28
-84 -49 -78 -20 7 -44 103 -45 178 l0 76 78 6 c83 6 198 -4 248 -22 l31 -12
-14 -97 c-16 -119 -17 -122 -45 -122 -20 0 -26 9 -42 67 -11 38 -27 85 -38
105 -16 33 -23 38 -53 38 -24 0 -37 -6 -45 -19 -13 -25 -13 -54 -1 -46 16 9
101 -16 110 -34 5 -9 11 -34 15 -56 12 -67 40 -145 53 -145 7 0 16 12 19 28 4
15 15 53 25 84 11 32 19 73 19 92 0 37 20 56 59 56 20 0 21 6 21 82 0 70 3 85
22 105 31 33 58 118 58 183 0 89 -50 200 -124 274 l-35 34 22 17 c20 15 20 15
2 10 -11 -4 -51 -13 -90 -19 -61 -11 -70 -15 -67 -33 1 -11 -4 -26 -13 -33 -9
-7 -22 -28 -30 -47 -16 -37 -35 -44 -35 -13 0 12 -9 39 -20 60 l-20 40 32 1
c30 1 28 3 -17 14 -74 19 -117 40 -146 72 -38 40 -49 65 -63 146 -8 40 -17 81
-21 91 -6 14 -5 17 3 12 8 -5 12 0 12 14 0 34 39 102 86 149 38 38 51 44 106
53 35 5 76 9 93 9 16 0 44 3 61 8 84 23 203 -67 243 -184 8 -21 23 -46 34 -55
15 -13 17 -20 9 -36 -19 -37 -31 -70 -47 -126 -12 -44 -25 -65 -53 -88 -20
-16 -32 -30 -27 -30 6 1 24 13 42 28 23 20 39 49 58 107 15 44 31 85 37 90 7
7 8 4 5 -10 -27 -96 -28 -109 -17 -156 7 -27 17 -52 23 -56 7 -4 8 0 2 13 -28
63 -11 195 32 253 23 29 23 32 5 22 -11 -6 -22 -16 -24 -23 -8 -23 -52 37 -73
97 -22 65 -78 129 -141 159 -21 10 -47 23 -56 27 -48 24 -233 0 -270 -34 -8
-6 -25 -22 -38 -34 l-25 -22 2 52 2 52 -15 -60 c-16 -67 -38 -111 -68 -138
-21 -18 -21 -18 -24 4 -5 32 26 158 49 197 10 18 19 48 18 65 l-1 32 -10 -30
c-5 -16 -12 -37 -15 -45 -42 -112 -53 -152 -53 -201 0 -42 -5 -63 -21 -83 -24
-30 -34 -28 -42 11 -8 37 -95 146 -109 137 -6 -4 -8 -3 -4 4 7 12 -74 82 -96
82 -7 0 -20 6 -26 13 -20 19 -247 15 -292 -5 -41 -19 -102 -76 -95 -88 3 -5 0
-12 -6 -16 -8 -4 -9 -3 -5 4 4 7 4 12 -1 12 -4 0 -19 -19 -33 -43 l-25 -42 -6
55 c-4 30 -4 65 -2 77 3 13 2 30 -1 39 -6 15 -8 15 -24 1 -15 -14 -23 -15 -50
-5 -18 7 -33 21 -35 33 -3 15 -5 14 -6 -6 0 -15 -8 -29 -16 -33 -8 -3 -14 -11
-13 -17 5 -22 -21 -20 -33 3 -13 24 -38 156 -39 201 0 15 -5 27 -11 27 -12 0
-9 -29 18 -163 8 -43 12 -81 9 -84 -3 -4 -25 13 -48 35 -23 23 -49 42 -57 41
-11 0 -8 -5 9 -17 14 -9 40 -32 59 -50 33 -33 33 -36 27 -90 -23 -199 -34
-253 -53 -275 -12 -12 -24 -31 -27 -42 -20 -61 -103 -95 -198 -81 -46 7 -47 8
-87 82 -23 42 -41 81 -41 89 0 7 -11 38 -25 69 -14 31 -25 63 -25 72 0 8 -9
34 -20 56 -32 66 -27 90 28 137 26 23 52 41 59 41 6 0 15 5 18 11 15 24 -73
-24 -103 -56 -18 -20 -37 -33 -42 -30 -15 9 -12 80 6 147 8 33 14 81 12 106
-3 44 -5 47 -30 44 -14 -2 -29 2 -33 7 -7 13 -25 15 -25 3z m1176 -266 c3 -8
-1 -27 -10 -43 -8 -15 -15 -23 -16 -16 0 6 -9 11 -20 10 -12 -1 -18 -7 -16
-14 4 -8 -3 -13 -16 -13 -20 0 -20 1 -3 20 10 11 22 17 26 14 5 -3 9 0 9 6 0
7 7 9 16 6 13 -5 15 -1 10 19 -7 26 10 36 20 11z m39 -21 c1 -13 -3 -21 -7
-19 -5 3 -11 -2 -15 -11 -3 -10 0 -21 8 -26 9 -5 10 -9 2 -9 -6 0 -13 -6 -16
-12 -2 -7 -3 -5 -2 5 5 26 -14 20 -21 -8 -3 -13 -13 -30 -22 -37 -8 -7 -13 -8
-11 -3 72 156 83 172 84 120z m-447 7 c9 19 11 11 11 -48 1 -39 6 -96 12 -125
20 -101 22 -114 22 -149 0 -59 -5 -93 -21 -142 -16 -47 -32 -63 -32 -33 0 9
-10 46 -22 83 -19 57 -22 89 -23 220 0 136 -2 153 -17 158 -10 3 -18 10 -18
15 0 5 8 9 18 7 12 -2 16 3 14 17 -4 19 -3 19 20 -3 l25 -22 11 22z m234 6
c-17 -17 -15 -31 3 -24 8 3 15 1 15 -3 0 -16 -28 -20 -34 -5 -11 28 -6 44 11
44 13 0 14 -3 5 -12z m242 -15 c-1 -16 -6 -39 -12 -53 -10 -22 -10 -19 -7 20
2 25 4 48 4 53 1 4 4 7 9 7 4 0 6 -12 6 -27z m23 -5 c-3 -7 -5 -2 -5 12 0 14
2 19 5 13 2 -7 2 -19 0 -25z m28 12 c3 -5 1 -10 -4 -10 -6 0 -11 5 -11 10 0 6
2 10 4 10 3 0 8 -4 11 -10z m-1304 -30 c15 9 19 7 19 -5 0 -8 6 -15 13 -15 8
0 7 -3 -3 -10 -11 -7 -12 -12 -3 -21 8 -8 9 -18 4 -28 -5 -9 -12 -37 -16 -63
-4 -27 -9 -48 -11 -48 -2 0 -19 16 -39 35 -40 41 -47 89 -19 145 14 27 18 30
26 16 7 -12 13 -14 29 -6z m1369 -23 c0 -6 7 -19 17 -29 9 -10 12 -18 6 -18
-5 0 -19 19 -31 41 -15 28 -17 38 -7 29 8 -7 15 -17 15 -23z m-95 -43 c-3 -19
-11 -34 -17 -34 -5 0 -8 6 -5 14 3 8 9 32 13 53 5 23 9 31 12 20 2 -11 1 -34
-3 -53z m-585 4 l0 -53 -20 44 c-25 54 -25 61 0 61 17 0 20 -7 20 -52z m645
42 c-3 -5 -1 -28 5 -51 15 -53 7 -61 -10 -10 -12 36 -9 71 5 71 4 0 3 -4 0
-10z m-315 -16 c0 -8 -19 -13 -24 -6 -3 5 1 9 9 9 8 0 15 -2 15 -3z m124 -24
c-10 -16 -19 -28 -21 -26 -6 6 20 56 29 56 5 0 1 -13 -8 -30z m-1537 -2 c-3
-8 -6 -5 -6 6 -1 11 2 17 5 13 3 -3 4 -12 1 -19z m1424 -1 c-10 -9 -11 -8 -5
6 3 10 9 15 12 12 3 -3 0 -11 -7 -18z m196 -27 c-6 -29 7 -52 16 -28 2 7 8 10
12 6 13 -12 -3 -38 -23 -38 -15 0 -19 8 -20 36 -1 36 4 54 15 54 3 0 3 -13 0
-30z m80 -31 c8 -53 9 -54 43 -54 41 0 48 -16 49 -120 1 -54 -5 -82 -23 -121
-27 -58 -86 -111 -133 -120 -19 -4 -33 -12 -33 -20 0 -8 -11 -19 -24 -24 -13
-5 -27 -14 -31 -20 -5 -8 -12 -6 -25 5 -12 11 -26 14 -44 9 -22 -5 -26 -3 -26
15 0 12 5 21 10 21 6 0 10 4 10 10 0 5 -6 7 -13 4 -13 -5 -62 14 -102 39 -29
18 -49 47 -62 92 -6 22 -19 60 -28 85 -17 45 -17 141 -1 157 9 9 239 11 330 3
65 -6 71 -1 81 64 8 48 13 43 22 -25z m-1828 14 c-4 -21 -6 -46 -3 -57 4 -12
2 -16 -5 -12 -15 10 -14 79 1 94 17 17 17 16 7 -25z m386 13 c13 -12 43 -38
67 -58 57 -47 88 -122 88 -214 0 -75 -15 -116 -59 -167 -41 -46 -90 -76 -149
-91 -30 -8 -47 -18 -47 -27 0 -19 -47 -109 -57 -109 -4 0 -14 13 -23 29 -8 16
-20 31 -26 33 -7 2 -13 15 -14 29 -1 13 -7 25 -13 25 -7 1 -16 2 -22 3 -5 0
-10 20 -10 42 0 32 -7 49 -30 76 -17 19 -38 52 -46 74 -9 21 -22 39 -30 39 -8
0 -15 9 -15 20 -1 11 -2 26 -3 33 -1 6 4 11 11 10 7 -2 15 16 19 45 10 69 21
91 49 102 17 6 33 29 52 70 l28 61 104 -2 c89 -2 107 -6 126 -23z m1115 20 c0
-2 -7 -9 -15 -16 -13 -11 -14 -10 -9 4 5 14 24 23 24 12z m124 -8 c-3 -5 -10
-6 -15 -3 -5 4 -9 0 -9 -8 0 -7 -7 -14 -15 -14 -18 0 -19 9 -4 24 13 13 50 13
43 1z m271 1 c11 -16 1 -19 -13 -3 -7 8 -8 14 -3 14 5 0 13 -5 16 -11z m-1812
-6 c4 -3 3 -11 -2 -17 -5 -6 -11 -20 -14 -31 -3 -12 -5 -4 -6 18 -1 35 7 46
22 30z m1293 -18 c-1 -14 -5 -27 -8 -30 -4 -5 -4 19 1 48 3 19 9 4 7 -18z
m554 -8 c0 -5 -4 -5 -10 -2 -5 3 -10 14 -10 23 0 15 2 15 10 2 5 -8 10 -19 10
-23z m-420 1 c0 -18 -2 -20 -9 -8 -6 8 -7 18 -5 22 9 14 14 9 14 -14z m78 -4
c24 1 42 -4 42 -10 0 -7 -18 -9 -52 -6 -62 5 -60 4 -51 27 5 15 7 16 12 3 4
-10 19 -14 49 -14z m125 14 c-4 -7 -6 -21 -5 -30 2 -12 -1 -16 -12 -12 -12 5
-13 10 -4 30 6 13 15 24 20 24 5 0 6 -6 1 -12z m-1672 -55 c-9 -15 -10 -13
-11 13 0 17 3 34 8 38 11 12 14 -32 3 -51z m1449 37 c0 -5 -6 -10 -12 -11 -7
0 -21 -2 -30 -4 -25 -5 -22 4 5 15 30 12 37 12 37 0z m177 -12 c-3 -8 -6 -5
-6 6 -1 11 2 17 5 13 3 -3 4 -12 1 -19z m302 -88 l-1 -35 -9 40 c-19 85 -20
93 -4 60 8 -16 14 -46 14 -65z m-607 28 c-2 -15 -5 -28 -7 -28 -2 0 -5 13 -7
28 -2 17 1 29 7 29 6 0 9 -12 7 -29z m757 -35 c13 -28 13 -28 -8 -9 -22 20
-27 36 -13 36 5 0 14 -12 21 -27z m-118 -106 c-10 -9 -11 -8 -5 6 3 10 9 15
12 12 3 -3 0 -11 -7 -18z m-20 -50 c-10 -9 -11 -8 -5 6 3 10 9 15 12 12 3 -3
0 -11 -7 -18z m-11 -27 c0 -5 -5 -10 -11 -10 -5 0 -7 5 -4 10 3 6 8 10 11 10
2 0 4 -4 4 -10z m11 -23 c-10 -9 -11 -8 -5 6 3 10 9 15 12 12 3 -3 0 -11 -7
-18z m-951 -55 c-5 -22 -20 -50 -33 -61 -51 -48 -82 -70 -85 -62 -4 11 57 102
76 114 6 4 12 13 12 19 0 16 34 51 38 40 2 -6 -2 -28 -8 -50z m-252 6 c6 -16
10 -28 7 -28 -5 0 -35 56 -35 67 0 12 15 -10 28 -39z m1245 -171 c26 -97 66
-134 115 -108 31 17 32 15 32 -43 0 -47 -3 -54 -22 -60 -39 -10 -53 -7 -75 17
-12 12 -51 53 -88 91 -42 43 -68 79 -72 99 -4 18 -12 38 -20 45 -17 17 -17 42
1 42 7 0 33 27 57 60 l44 61 6 -73 c4 -40 14 -99 22 -131z m-107 165 c-8 -23
-32 -36 -41 -21 -4 5 -1 8 6 7 7 -2 18 7 23 19 12 26 20 23 12 -5z m-995 -64
c-42 -64 -45 -66 -56 -45 -6 12 -23 41 -38 64 -15 24 -27 44 -27 45 0 2 37 3
83 3 l83 0 -45 -67z m1338 38 c7 -8 26 -18 42 -21 21 -5 31 -14 35 -33 4 -15
15 -45 24 -67 9 -22 22 -53 29 -68 14 -36 27 -28 29 19 1 22 13 54 32 82 16
25 30 49 30 54 0 4 14 8 30 8 52 0 38 -31 -78 -176 l-23 -28 -43 44 c-45 48
-106 133 -106 148 0 5 -7 15 -15 22 -17 14 -20 30 -6 30 5 0 14 -6 20 -14z
m-1429 -54 c0 -3 -9 3 -20 13 -11 10 -20 23 -20 28 0 6 9 0 20 -13 11 -13 20
-25 20 -28z m-980 -12 c0 -5 -2 -10 -4 -10 -3 0 -8 5 -11 10 -3 6 -1 10 4 10
6 0 11 -4 11 -10z m998 -25 c-3 -3 -9 2 -12 12 -6 14 -5 15 5 6 7 -7 10 -15 7
-18z m733 -17 c47 -52 51 -69 7 -34 -103 84 -96 75 -69 76 15 0 37 -15 62 -42z
m281 25 c17 -15 15 -17 -34 -33 -125 -41 -153 -49 -157 -44 -3 2 2 19 11 36
13 27 23 34 69 44 77 16 90 16 111 -3z m-218 -18 c13 -10 17 -21 12 -39 -9
-35 -18 -32 -37 9 -21 46 -12 58 25 30z m-1807 -37 c-3 -8 -6 -5 -6 6 -1 11 2
17 5 13 3 -3 4 -12 1 -19z m523 1 c0 -23 -33 -79 -50 -84 -10 -3 -21 -12 -24
-20 -3 -8 -12 -15 -21 -15 -13 0 -11 9 11 48 36 64 84 105 84 71z m-213 -26
c3 -10 19 -35 36 -55 35 -46 21 -49 -28 -7 -22 19 -35 40 -35 55 0 28 18 32
27 7z m-307 -38 c0 -14 -5 -25 -11 -25 -6 0 -9 7 -5 15 3 8 0 15 -7 15 -8 0
-6 4 3 10 20 13 20 13 20 -15z m2253 -160 c20 -10 37 -24 37 -31 0 -17 -48
-24 -84 -12 -49 17 -54 27 -26 48 14 11 27 18 30 17 3 -1 22 -11 43 -22z
m-2257 -100 c6 -14 -3 -52 -10 -44 -2 2 -6 16 -10 32 -7 29 10 39 20 12z
m1192 -75 c47 -15 51 -27 26 -89 -19 -49 -38 -57 -84 -35 -35 17 -35 17 -34
83 1 87 1 85 27 69 12 -8 41 -20 65 -28z m-219 -99 c-20 -49 -23 -51 -60 -51
-35 0 -39 3 -39 25 0 14 -7 37 -16 50 -15 24 -15 25 13 36 15 6 37 16 48 22
76 40 70 40 73 3 2 -20 -6 -57 -19 -85z m1029 -71 c18 -72 9 -133 -23 -154
-19 -12 -25 -13 -25 -4 -1 7 -9 31 -20 53 -11 22 -19 45 -20 51 0 5 -9 30 -21
53 -11 24 -18 49 -15 57 3 8 1 14 -4 14 -6 0 -10 4 -10 9 0 5 28 2 63 -8 l62
-18 13 -53z m-240 38 c-16 -33 -20 -60 -19 -115 2 -61 0 -73 -14 -73 -8 0 -18
-7 -22 -16 -4 -11 -10 -5 -19 23 -8 21 -12 44 -9 51 3 8 0 10 -7 6 -7 -5 -9 0
-6 14 4 12 3 22 -1 22 -14 0 -43 62 -34 71 12 12 123 58 140 59 7 0 4 -16 -9
-42z"/>
<path d="M2853 2000 c-19 -8 -23 -17 -23 -50 0 -50 21 -62 50 -29 20 25 24 80
5 85 -5 1 -20 -1 -32 -6z"/>
<path d="M3162 1983 c-30 -25 -39 -71 -16 -80 22 -8 66 41 62 70 -4 28 -21 31
-46 10z"/>
<path d="M2924 1881 c-2 -2 1 -10 7 -17 6 -7 13 -40 16 -72 5 -51 9 -61 33
-76 42 -24 77 -20 111 13 26 26 29 36 29 93 l0 63 -96 0 c-52 0 -97 -2 -100
-4z m176 -56 c0 -24 -5 -55 -11 -69 -14 -29 -61 -41 -98 -23 -22 10 -27 20
-31 69 l-5 58 57 -2 c32 -1 61 1 65 5 16 16 23 4 23 -38z"/>
<path d="M2830 1865 c0 -8 2 -15 4 -15 2 0 6 7 10 15 3 8 1 15 -4 15 -6 0 -10
-7 -10 -15z"/>
<path d="M2861 1864 c0 -11 3 -14 6 -6 3 7 2 16 -1 19 -3 4 -6 -2 -5 -13z"/>
<path d="M3180 1871 c0 -6 5 -13 10 -16 6 -3 10 1 10 9 0 9 -4 16 -10 16 -5 0
-10 -4 -10 -9z"/>
<path d="M3150 1859 c0 -5 5 -7 10 -4 6 3 10 8 10 11 0 2 -4 4 -10 4 -5 0 -10
-5 -10 -11z"/>
<path d="M1520 1990 c-12 -7 -11 -12 4 -29 24 -26 46 -27 46 -1 0 24 -31 42
-50 30z"/>
<path d="M1570 1918 c0 -18 18 -34 28 -24 3 4 -2 14 -11 23 -16 16 -17 16 -17
1z"/>
<path d="M1540 1906 c0 -15 18 -31 26 -23 7 7 -7 37 -17 37 -5 0 -9 -6 -9 -14z"/>
<path d="M1694 1885 c-14 -34 4 -143 27 -169 22 -25 62 -34 85 -18 33 23 64
81 64 120 0 37 -3 42 -23 42 -22 0 -89 18 -129 35 -12 5 -20 2 -24 -10z m34
-24 c3 -8 -1 -12 -9 -9 -7 2 -15 10 -17 17 -3 8 1 12 9 9 7 -2 15 -10 17 -17z
m37 -11 c3 -5 -1 -10 -9 -10 -9 0 -16 5 -16 10 0 6 4 10 9 10 6 0 13 -4 16
-10z m55 -10 c0 -5 -9 -10 -20 -10 -11 0 -20 5 -20 10 0 6 9 10 20 10 11 0 20
-4 20 -10z m-55 -30 c12 0 35 -47 35 -72 0 -23 -27 -35 -49 -21 -20 12 -50 71
-51 100 0 21 1 21 28 7 15 -7 32 -14 37 -14z m85 -12 c0 -7 -6 -21 -13 -30
-12 -15 -14 -14 -24 13 -11 27 -10 29 13 29 13 0 24 -6 24 -12z"/>
<path d="M3153 1012 c0 -12 5 -22 9 -22 11 0 10 12 -2 30 -7 12 -9 10 -7 -8z"/>
<path d="M3204 939 c1 -7 12 -13 24 -14 11 -1 19 2 16 7 -4 5 -12 7 -19 4 -8
-3 -16 -1 -19 5 -2 5 -3 4 -2 -2z"/>
<path d="M3173 925 c0 -8 4 -12 9 -9 5 3 6 10 3 15 -9 13 -12 11 -12 -6z"/>
<path d="M3184 898 c-4 -7 -4 -10 1 -6 4 4 15 2 24 -5 14 -11 14 -10 2 6 -16
20 -18 21 -27 5z"/>
<path d="M2946 883 c-6 -14 -5 -15 5 -6 7 7 10 15 7 18 -3 3 -9 -2 -12 -12z"/>
<path d="M2601 2406 c-9 -11 -8 -27 3 -68 l14 -53 -2 67 c0 38 -2 68 -2 68 -1
0 -7 -6 -13 -14z"/>
<path d="M3597 2393 c-4 -3 -7 -13 -7 -21 0 -12 3 -12 15 -2 13 11 15 8 15
-22 0 -19 5 -39 12 -46 8 -8 8 -15 -2 -29 -8 -10 -3 -8 10 4 19 18 22 25 12
35 -7 7 -12 29 -12 50 0 30 -4 38 -18 38 -10 0 -22 -3 -25 -7z"/>
<path d="M2206 2318 c-22 -32 -20 -45 3 -17 16 21 22 22 42 11 23 -11 159 -42
159 -36 0 11 -64 34 -92 34 -18 0 -46 7 -62 15 -35 19 -32 19 -50 -7z"/>
<path d="M1272 2212 c5 -17 2 -22 -12 -22 -19 0 -44 -23 -34 -32 8 -9 74 14
68 24 -8 12 10 10 23 -3 9 -9 16 -7 29 5 9 9 14 20 10 23 -3 4 -11 2 -18 -5
-8 -8 -19 -6 -41 10 l-30 22 5 -22z"/>
<path d="M2208 2212 c-18 -21 -4 -120 20 -142 28 -27 82 -26 111 1 23 22 24
38 9 145 -2 16 -126 13 -140 -4z m72 -22 c0 -5 -2 -10 -4 -10 -3 0 -8 5 -11
10 -3 6 -1 10 4 10 6 0 11 -4 11 -10z m30 0 c0 -5 -2 -10 -4 -10 -3 0 -8 5
-11 10 -3 6 -1 10 4 10 6 0 11 -4 11 -10z m30 -53 c0 -49 -16 -67 -59 -67 -41
0 -46 6 -61 67 l-8 32 64 -1 c63 -2 64 -3 64 -31z"/>
<path d="M3698 2156 c-23 -17 -28 -61 -8 -61 18 0 45 54 34 65 -5 5 -17 3 -26
-4z"/>
<path d="M3965 2149 c-4 -5 -4 -21 -1 -35 8 -32 40 -28 44 5 5 31 -28 55 -43
30z"/>
<path d="M4425 2117 c-22 -5 -52 -18 -67 -28 -14 -11 -30 -19 -35 -19 -5 0
-22 -13 -38 -30 l-29 -30 52 25 c29 14 88 33 130 43 74 18 83 18 158 2 88 -18
158 -50 176 -80 7 -11 18 -20 25 -20 6 0 19 -10 27 -22 14 -19 16 -20 16 -5 0
10 -31 48 -69 85 -55 54 -79 70 -117 80 -56 14 -171 13 -229 -1z"/>
<path d="M3690 2060 c0 -5 5 -10 10 -10 6 0 10 5 10 10 0 6 -4 10 -10 10 -5 0
-10 -4 -10 -10z"/>
<path d="M3760 2061 c0 -6 4 -12 9 -15 5 -3 5 -25 0 -48 -16 -84 12 -139 62
-123 34 11 59 47 79 114 20 65 20 85 -2 63 -17 -17 -77 -15 -112 3 -33 18 -36
18 -36 6z m126 -73 c-8 -55 -36 -92 -67 -92 -23 -1 -24 3 -27 65 l-3 66 52 2
52 1 -7 -42z"/>
<path d="M3980 2059 c0 -5 5 -7 10 -4 6 3 10 8 10 11 0 2 -4 4 -10 4 -5 0 -10
-5 -10 -11z"/>
<path d="M4936 2042 c-5 -14 -14 -21 -24 -20 -14 3 -17 -7 -18 -52 -1 -46 0
-50 7 -25 5 17 6 38 3 47 -4 12 0 15 16 11 14 -4 20 -1 20 11 0 13 4 15 19 7
13 -8 17 -18 14 -38 -5 -26 -4 -27 9 -9 16 20 13 56 -5 56 -5 0 -15 8 -22 17
-11 15 -13 15 -19 -5z"/>
<path d="M4331 2033 c-12 -5 -51 -39 -51 -45 0 -2 11 -4 25 -4 14 -1 22 2 19
8 -6 10 13 38 27 38 13 0 11 -34 -3 -48 -18 -18 54 -16 99 3 39 16 93 20 93 6
0 -13 72 -28 100 -20 14 4 41 8 60 9 35 1 35 2 10 13 -14 6 -30 18 -37 27 -6
8 -15 12 -19 7 -4 -4 -2 -7 4 -7 20 0 13 -27 -9 -33 -17 -5 -20 -1 -17 21 3
24 0 27 -32 29 -19 1 -29 0 -22 -3 21 -10 14 -44 -9 -44 -17 0 -20 5 -16 21 4
16 2 19 -11 13 -37 -15 -72 -15 -94 0 -21 15 -88 20 -117 9z m108 -17 c13 -16
5 -24 -29 -31 -21 -4 -24 3 -14 29 8 20 28 21 43 2z"/>
<path d="M4347 1953 c-4 -3 -7 -11 -7 -17 0 -6 5 -5 12 2 6 6 9 14 7 17 -3 3
-9 2 -12 -2z"/>
<path d="M4371 1944 c0 -11 3 -14 6 -6 3 7 2 16 -1 19 -3 4 -6 -2 -5 -13z"/>
<path d="M4158 1939 c-10 -5 -18 -14 -18 -19 0 -17 15 -11 28 10 14 23 13 23
-10 9z"/>
<path d="M4450 1886 c0 -36 4 -77 10 -91 8 -22 15 -26 42 -23 27 2 37 10 51
40 40 82 28 150 -23 129 l-25 -10 28 0 c23 -1 27 -5 27 -30 0 -56 -33 -121
-61 -121 -24 0 -39 35 -39 91 0 54 2 59 23 59 18 0 19 2 7 10 -33 21 -40 12
-40 -54z"/>
<path d="M4610 1940 c0 -5 7 -10 15 -10 8 0 15 5 15 10 0 6 -7 10 -15 10 -8 0
-15 -4 -15 -10z"/>
<path d="M4845 1920 c3 -5 -1 -10 -9 -10 -9 0 -16 -4 -16 -10 0 -5 5 -10 11
-10 6 0 3 -7 -5 -16 -9 -8 -16 -18 -16 -20 0 -10 36 2 47 16 7 8 13 10 13 4 0
-6 -9 -19 -20 -29 -11 -10 -20 -22 -20 -26 0 -4 -15 -29 -32 -55 -39 -55 -73
-110 -87 -141 -12 -25 -79 -63 -113 -63 -38 0 -69 -12 -65 -24 2 -6 -4 -22
-13 -36 -9 -14 -20 -38 -24 -55 -6 -25 -9 -27 -17 -13 -11 19 -1 98 12 98 5 0
9 4 9 9 0 4 -34 11 -75 14 -53 4 -83 12 -104 26 -16 12 -33 21 -37 21 -4 0 7
-11 24 -24 l32 -23 -37 -25 c-70 -46 -126 -108 -119 -131 3 -12 13 -51 22 -87
9 -36 22 -78 30 -93 14 -28 8 -100 -6 -77 -11 18 1 -172 12 -193 5 -10 22 -23
38 -28 22 -8 29 -18 34 -49 10 -62 25 -87 66 -105 66 -30 102 -2 64 48 -18 23
-20 23 -56 9 -53 -21 -63 -8 -63 78 0 76 6 87 52 96 l31 6 -10 -45 c-7 -35 -6
-52 6 -78 15 -32 16 -32 12 -6 -3 23 0 27 21 27 13 0 43 -5 66 -11 47 -11 79
-53 70 -88 -4 -17 -1 -21 19 -21 29 0 73 54 73 90 0 19 6 25 34 31 54 11 71
37 82 120 12 96 -4 209 -46 310 -6 15 1 16 57 12 78 -7 124 13 134 55 3 15 7
32 9 37 4 15 -13 124 -26 167 -9 29 -9 41 0 52 7 9 11 21 9 27 -2 7 -10 -3
-17 -22 -8 -19 -25 -51 -39 -72 -35 -52 -40 -35 -29 105 7 93 13 117 34 149
24 37 25 38 6 63 -17 24 -41 38 -28 16z m-196 -387 c-13 -16 -33 -38 -44 -49
-11 -12 -28 -33 -39 -48 -10 -14 -32 -33 -48 -41 -28 -13 -29 -13 -23 3 4 9
10 28 13 42 3 14 16 38 28 53 13 16 24 32 24 37 0 8 61 27 94 29 18 1 18 -1
-5 -26z m-211 -3 c21 0 22 -4 22 -68 0 -40 5 -73 12 -80 7 -7 9 -12 5 -12 -12
0 -56 53 -63 75 -3 11 -12 27 -19 35 -7 8 -16 26 -20 39 -7 21 -5 23 16 18 13
-4 34 -7 47 -7z m164 -574 c39 -22 48 -39 48 -93 0 -30 -3 -33 -28 -33 -34 0
-53 19 -79 80 -36 81 -36 81 -5 74 15 -4 44 -16 64 -28z"/>
<path d="M4948 1828 c-24 -88 -22 -108 3 -33 10 33 18 69 17 80 -2 10 -11 -11
-20 -47z"/>
<path d="M4220 1653 c0 -6 8 -17 18 -24 16 -13 16 -13 2 6 -8 11 -16 22 -17
24 -2 2 -3 0 -3 -6z"/>
<path d="M1740 810 c0 -14 -3 -35 -6 -47 -9 -34 20 -30 55 7 47 50 46 65 -6
65 -39 0 -43 -2 -43 -25z"/>
</g>
</svg>
